<svg width="24" height="24" viewBox="0 0 24 24" fill="none" xmlns="http://www.w3.org/2000/svg">
<g id="dark_mode">
<mask id="mask0_380_4543" style="mask-type:alpha" maskUnits="userSpaceOnUse" x="0" y="0" width="24" height="24">
<rect id="Bounding box" width="24" height="24" fill="#D9D9D9"/>
</mask>
<g mask="url(#mask0_380_4543)">
<path id="dark_mode_2" d="M12.0293 20.5002C9.66817 20.5002 7.66124 19.6738 6.00847 18.021C4.35569 16.3682 3.5293 14.3613 3.5293 12.0002C3.5293 9.73741 4.29692 7.79672 5.83217 6.17814C7.36741 4.55956 9.2472 3.68296 11.4715 3.54834C11.6151 3.54834 11.7561 3.55346 11.8946 3.56371C12.033 3.57396 12.1689 3.58935 12.3023 3.60986C11.792 4.08678 11.3856 4.66306 11.0831 5.33869C10.7805 6.01434 10.6292 6.73485 10.6292 7.50021C10.6292 9.13911 11.2028 10.5322 12.3501 11.6794C13.4973 12.8266 14.8904 13.4002 16.5293 13.4002C17.3049 13.4002 18.028 13.249 18.6985 12.9464C19.369 12.6439 19.9395 12.2375 20.41 11.7272C20.4305 11.8605 20.4459 11.9964 20.4561 12.1349C20.4664 12.2733 20.4715 12.4144 20.4715 12.5579C20.3433 14.7823 19.4699 16.6621 17.8513 18.1973C16.2328 19.7326 14.2921 20.5002 12.0293 20.5002ZM12.0293 19.0002C13.4959 19.0002 14.8126 18.596 15.9793 17.7877C17.1459 16.9794 17.9959 15.9252 18.5293 14.6252C18.1959 14.7085 17.8626 14.7752 17.5293 14.8252C17.1959 14.8752 16.8626 14.9002 16.5293 14.9002C14.4793 14.9002 12.7334 14.1794 11.2918 12.7377C9.85011 11.296 9.12927 9.55021 9.12927 7.50021C9.12927 7.16688 9.15427 6.83355 9.20427 6.50022C9.25427 6.16688 9.32094 5.83355 9.40427 5.50022C8.10427 6.03355 7.05011 6.88355 6.24177 8.05021C5.43344 9.21688 5.02927 10.5335 5.02927 12.0002C5.02927 13.9335 5.7126 15.5835 7.07927 16.9502C8.44594 18.3169 10.0959 19.0002 12.0293 19.0002Z" fill="#3A3A3A"/>
</g>
</g>
</svg>
