<svg xmlns="http://www.w3.org/2000/svg" xmlns:xlink="http://www.w3.org/1999/xlink" viewBox="0,0,256,256" width="100px" height="100px" fill-rule="nonzero"><g fill-opacity="0" fill="#dddddd" fill-rule="nonzero" stroke="none" stroke-width="1" stroke-linecap="butt" stroke-linejoin="miter" stroke-miterlimit="10" stroke-dasharray="" stroke-dashoffset="0" font-family="none" font-weight="none" font-size="none" text-anchor="none" style="mix-blend-mode: normal"><path d="M0,256v-256h256v256z" id="bgRectangle"></path></g><g fill="none" fill-rule="nonzero" stroke="none" stroke-width="1" stroke-linecap="butt" stroke-linejoin="miter" stroke-miterlimit="10" stroke-dasharray="" stroke-dashoffset="0" font-family="none" font-weight="none" font-size="none" text-anchor="none" style="mix-blend-mode: normal"><g transform="scale(2.56,2.56)"><circle cx="78" cy="14" r="1" fill="#49f119"></circle><circle cx="50" cy="50" r="38" fill="#86e494"></circle><circle cx="84" cy="16" r="4" fill="#49f119"></circle><circle cx="14" cy="26" r="2" fill="#ee3e54"></circle><circle cx="78" cy="77" r="2" fill="#59fb6d"></circle><circle cx="17" cy="78" r="4" fill="#59fb6d"></circle><circle cx="24" cy="83" r="2" fill="#ee3e54"></circle><circle cx="66.5" cy="78.5" r="2.5" fill="#60b6a2"></circle><circle cx="16" cy="48" r="1" fill="#60b6a2"></circle><circle cx="86" cy="31" r="1" fill="#49f119"></circle><circle cx="80" cy="66" r="2" fill="#60b6a2"></circle><path d="M50,63c-16,0 -28,-5.6 -28,-13c0,-7.4 12,-13 28,-13c16,0 28,5.6 28,13c0,7.4 -12,13 -28,13zM50,40.9c-14.3,0 -24.3,4.8 -24.3,9.1c0,4.3 10,9.1 24.3,9.1c14.3,0 24.3,-4.8 24.3,-9.1c0,-4.3 -10,-9.1 -24.3,-9.1z" fill="#32e793"></path><path d="M50,63.7c-16.4,0 -28.7,-5.9 -28.7,-13.7c0,-7.8 12.3,-13.7 28.7,-13.7c16.4,0 28.7,5.9 28.7,13.7c0,7.8 -12.3,13.7 -28.7,13.7zM50,37.7c-15.6,0 -27.3,5.3 -27.3,12.3c0,7 11.7,12.3 27.3,12.3c15.6,0 27.3,-5.3 27.3,-12.3c0,-7 -11.7,-12.3 -27.3,-12.3zM50,59.8c-14.9,0 -25,-5.1 -25,-9.8c0,-4.7 10,-9.8 25,-9.8c15,0 25,5.1 25,9.8c0,4.7 -10.1,9.8 -25,9.8zM50,41.6c-14.6,0 -23.6,4.9 -23.6,8.4c0,3.5 9,8.4 23.6,8.4c14.6,0 23.6,-4.9 23.6,-8.4c0,-3.5 -9,-8.4 -23.6,-8.4z" fill="#472b29"></path><path d="M39.5,75.2c-1.3,0 -2.4,-0.3 -3.4,-0.9c-6.1,-3.6 -4.8,-16.7 3.1,-30.6c5.5,-9.7 12.9,-17 18.9,-18.6c2.2,-0.6 4.2,-0.4 5.8,0.5c6.1,3.6 4.8,16.7 -3.1,30.6c-5.5,9.7 -12.9,17 -18.9,18.6c-0.8,0.3 -1.6,0.4 -2.4,0.4zM60.5,28.5c-0.4,0 -0.9,0.1 -1.5,0.2c-4.9,1.3 -11.6,8.1 -16.6,16.8c-6.9,12.1 -8,23.4 -4.5,25.5c0.7,0.4 1.7,0.5 3,0.2c4.9,-1.3 11.6,-8.1 16.6,-16.8c6.9,-12.1 8,-23.4 4.5,-25.5c-0.4,-0.2 -0.9,-0.4 -1.5,-0.4z" fill="#32e793"></path><path d="M39.5,75.9c-1.4,0 -2.7,-0.3 -3.8,-1c-6.5,-3.8 -5.3,-17.4 2.8,-31.6c5.6,-9.9 13.2,-17.3 19.3,-18.9c2.4,-0.6 4.6,-0.4 6.4,0.6c6.5,3.8 5.3,17.4 -2.8,31.6c-5.6,9.9 -13.2,17.3 -19.3,18.9c-0.9,0.3 -1.7,0.4 -2.6,0.4zM60.5,25.5c-0.7,0 -1.5,0.1 -2.2,0.3c-5.8,1.5 -13,8.7 -18.4,18.2c-7.6,13.3 -9,26.3 -3.3,29.7c1.4,0.8 3.3,1 5.3,0.5c5.8,-1.5 13,-8.7 18.4,-18.2c7.6,-13.3 9.1,-26.3 3.3,-29.6c-1,-0.6 -2,-0.9 -3.1,-0.9zM39.5,72.2c-0.7,0 -1.3,-0.2 -1.9,-0.5c-4.4,-2.5 -2.4,-14.9 4.2,-26.5c5.1,-8.9 11.9,-15.8 17,-17.1c1.4,-0.4 2.6,-0.3 3.5,0.2c4.4,2.5 2.4,14.9 -4.2,26.5c-5.1,8.9 -11.9,15.8 -17,17.1c-0.5,0.2 -1.1,0.3 -1.6,0.3zM60.5,29.2c-0.4,0 -0.8,0.1 -1.3,0.2c-4.8,1.3 -11.3,7.9 -16.2,16.5c-7.1,12.5 -7.6,22.9 -4.7,24.6c0.6,0.3 1.4,0.4 2.4,0.1c4.8,-1.3 11.3,-7.9 16.2,-16.5c7.1,-12.5 7.6,-22.9 4.7,-24.6c-0.3,-0.2 -0.7,-0.3 -1.1,-0.3z" fill="#472b29"></path><path d="M60.5,75.2c-0.8,0 -1.6,-0.1 -2.4,-0.3c-5.9,-1.6 -13.3,-8.9 -18.9,-18.6c-7.9,-13.9 -9.2,-27 -3.1,-30.6c1.6,-0.9 3.6,-1.1 5.8,-0.5c5.9,1.6 13.3,8.9 18.9,18.6c7.9,13.9 9.2,27 3.1,30.6c-1,0.5 -2.2,0.8 -3.4,0.8zM39.5,28.5c-0.6,0 -1.1,0.1 -1.5,0.4c-3.6,2.1 -2.4,13.5 4.5,25.5c5,8.7 11.6,15.5 16.6,16.8c1.2,0.3 2.2,0.3 3,-0.2c3.6,-2.1 2.4,-13.5 -4.5,-25.5c-5,-8.7 -11.6,-15.5 -16.6,-16.8c-0.6,-0.1 -1,-0.2 -1.5,-0.2z" fill="#32e793"></path><path d="M60.5,75.9c-0.8,0 -1.7,-0.1 -2.6,-0.4c-6.1,-1.6 -13.7,-9.1 -19.3,-18.9c-8.1,-14.2 -9.3,-27.8 -2.8,-31.6c1.8,-1 4,-1.3 6.4,-0.6c6.1,1.6 13.7,9.1 19.3,18.9c8.1,14.2 9.3,27.8 2.8,31.6c-1.2,0.7 -2.4,1 -3.8,1zM39.5,25.5c-1.1,0 -2.2,0.3 -3.1,0.8c-5.7,3.3 -4.2,16.4 3.3,29.6c5.4,9.5 12.7,16.7 18.4,18.2c2,0.5 3.8,0.4 5.3,-0.5c5.7,-3.3 4.2,-16.4 -3.3,-29.7c-5.4,-9.5 -12.7,-16.7 -18.4,-18.2c-0.7,-0.1 -1.5,-0.2 -2.2,-0.2zM60.5,72.2c-0.5,0 -1,-0.1 -1.6,-0.2c-5.1,-1.4 -11.9,-8.3 -17,-17.1c-6.6,-11.6 -8.6,-23.9 -4.2,-26.5c0.9,-0.5 2.1,-0.6 3.5,-0.2c5.1,1.4 11.9,8.3 17,17.1c6.6,11.6 8.6,23.9 4.2,26.5c-0.6,0.2 -1.2,0.4 -1.9,0.4zM39.5,29.2c-0.5,0 -0.9,0.1 -1.2,0.3c-2.8,1.7 -2.4,12.1 4.7,24.6c4.9,8.6 11.4,15.2 16.2,16.5c1,0.3 1.9,0.2 2.4,-0.1c2.8,-1.7 2.4,-12.1 -4.7,-24.6c-4.9,-8.6 -11.3,-15.2 -16.1,-16.5c-0.5,-0.1 -0.9,-0.2 -1.3,-0.2z" fill="#472b29"></path><g><circle cx="50" cy="50" r="5.5" fill="#32e793"></circle><path d="M50,56c-3.3,0 -6,-2.7 -6,-6c0,-3.3 2.7,-6 6,-6c3.3,0 6,2.7 6,6c0,3.3 -2.7,6 -6,6zM50,45c-2.8,0 -5,2.2 -5,5c0,2.8 2.2,5 5,5c2.8,0 5,-2.2 5,-5c0,-2.8 -2.2,-5 -5,-5z" fill="#472b29"></path></g><g fill="#472b29"><path d="M50,53.8c-0.1,0 -0.3,-0.1 -0.3,-0.3c0,-0.2 0.1,-0.3 0.3,-0.3c0.4,0 0.7,-0.1 1.1,-0.2c0.5,-0.2 0.9,-0.5 1.3,-0.8c0.1,-0.1 0.3,-0.1 0.4,0c0.1,0.1 0.1,0.3 0,0.4c-0.4,0.4 -0.9,0.8 -1.5,1c-0.4,0.1 -0.9,0.2 -1.3,0.2z"></path></g><g fill="#472b29"><path d="M53.1,51.8h-0.1c-0.1,-0.1 -0.2,-0.2 -0.1,-0.3c0.2,-0.4 0.3,-0.9 0.3,-1.4c0,-1.3 -0.7,-2.4 -1.8,-2.9c-0.1,-0.1 -0.2,-0.2 -0.1,-0.3c0.1,-0.1 0.2,-0.2 0.3,-0.1c1.3,0.6 2.1,1.9 2.1,3.4c0,0.6 -0.1,1.1 -0.4,1.7c0,-0.2 -0.1,-0.1 -0.2,-0.1z"></path></g><g fill="#472b29"><path d="M48.1,47.3c-0.1,0 -0.2,0 -0.2,-0.1c-0.1,-0.1 0,-0.3 0.1,-0.3c0.6,-0.4 1.3,-0.6 2,-0.6c0.1,0 0.3,0.1 0.3,0.3c0,0.2 -0.1,0.3 -0.3,0.3c-0.6,0 -1.2,0.2 -1.8,0.5c0,-0.1 0,-0.1 -0.1,-0.1z"></path></g><g fill="#472b29"><path d="M53.5,36.8c-0.1,0 -0.1,0 -0.2,-0.1c-3.7,-4.6 -7.2,-7.6 -10.4,-8.9c-0.1,-0.1 -0.2,-0.2 -0.1,-0.3c0.1,-0.1 0.2,-0.2 0.3,-0.1c3.3,1.4 6.8,4.5 10.6,9.1c0.1,0.1 0.1,0.3 0,0.4c-0.1,-0.2 -0.1,-0.1 -0.2,-0.1z"></path></g><g fill="#472b29"><path d="M36.5,27.8c-0.1,0 -0.1,0 -0.2,-0.1c-0.1,-0.1 -0.1,-0.3 0,-0.4c0.3,-0.2 1.9,-1.3 4.8,-0.7c0.1,0 0.2,0.2 0.2,0.3c0,0.1 -0.2,0.2 -0.3,0.2c-2.7,-0.6 -4.1,0.4 -4.3,0.6c-0.1,0 -0.1,0.1 -0.2,0.1z"></path></g><g fill="#472b29"><path d="M73.3,55.5c-0.1,0 -0.1,0 -0.2,-0.1c-0.1,-0.1 -0.1,-0.3 0,-0.4c2.3,-1.9 3.2,-4.1 2.7,-6.6c0,-0.1 0.1,-0.3 0.2,-0.3c0.1,0 0.3,0.1 0.3,0.2c0.6,2.6 -0.4,5.1 -2.9,7.1c0,0.1 -0.1,0.1 -0.1,0.1z"></path></g><g fill="#472b29"><path d="M69,57.9c-0.1,0 -0.2,-0.1 -0.2,-0.2c0,-0.1 0,-0.3 0.2,-0.3c0,0 1.4,-0.5 2.9,-1.4c0.1,-0.1 0.3,0 0.3,0.1c0.1,0.1 0,0.3 -0.1,0.3c-1.6,1 -3,1.4 -3.1,1.5z"></path></g><g fill="#472b29"><path d="M39.1,73.6v0c-2.7,-0.1 -4.4,-2.1 -5,-5.7c0,-0.1 0.1,-0.3 0.2,-0.3c0.1,0 0.3,0.1 0.3,0.2c0.6,3.4 2.1,5.2 4.5,5.3c0.1,0 0.2,0.1 0.2,0.3c0.1,0.1 0,0.2 -0.2,0.2z"></path></g><g fill="#472b29"><path d="M34.1,65.7c-0.1,0 -0.2,-0.1 -0.3,-0.2c-0.1,-2.3 0.2,-4.3 0.3,-4.6c0,-0.1 0.2,-0.2 0.3,-0.2c0.1,0 0.2,0.2 0.2,0.3c0,0.1 -0.4,2.1 -0.3,4.4c0.1,0.2 0,0.3 -0.2,0.3z"></path></g></g></g></svg>