<svg xmlns="http://www.w3.org/2000/svg" xmlns:xlink="http://www.w3.org/1999/xlink" viewBox="0,0,256,256" width="100px" height="100px"><g fill="none" fill-rule="nonzero" stroke="none" stroke-width="none" stroke-linecap="none" stroke-linejoin="none" stroke-miterlimit="10" stroke-dasharray="" stroke-dashoffset="0" font-family="none" font-weight="none" font-size="none" text-anchor="none" style="mix-blend-mode: normal"><g transform="scale(2.56,2.56)"><path d="M77,12c-0.552,0 -1,0.448 -1,1c0,0.552 0.448,1 1,1c0.552,0 1,-0.448 1,-1c0,-0.552 -0.448,-1 -1,-1z" fill-opacity="0" fill="#f1bc19" stroke="none" stroke-width="1" stroke-linecap="butt" stroke-linejoin="miter"></path><path d="M50,13c-20.435,0 -37,16.565 -37,37c0,20.435 16.565,37 37,37c20.435,0 37,-16.565 37,-37c0,-20.435 -16.565,-37 -37,-37z" fill="#a6cfad" stroke="none" stroke-width="1" stroke-linecap="butt" stroke-linejoin="miter"></path><path d="M83,11c-2.209,0 -4,1.791 -4,4c0,2.209 1.791,4 4,4c2.209,0 4,-1.791 4,-4c0,-2.209 -1.791,-4 -4,-4z" fill-opacity="0" fill="#f1bc19" stroke="none" stroke-width="1" stroke-linecap="butt" stroke-linejoin="miter"></path><path d="M87,22c-1.105,0 -2,0.895 -2,2c0,1.105 0.895,2 2,2c1.105,0 2,-0.895 2,-2c0,-1.105 -0.895,-2 -2,-2z" fill="#8889b9" stroke="none" stroke-width="1" stroke-linecap="butt" stroke-linejoin="miter"></path><path d="M81,74c-1.105,0 -2,0.895 -2,2c0,1.105 0.895,2 2,2c1.105,0 2,-0.895 2,-2c0,-1.105 -0.895,-2 -2,-2zM15,59c-2.209,0 -4,1.791 -4,4c0,2.209 1.791,4 4,4c2.209,0 4,-1.791 4,-4c0,-2.209 -1.791,-4 -4,-4z" fill="#85b665" stroke="none" stroke-width="1" stroke-linecap="butt" stroke-linejoin="miter"></path><path d="M25,85c-1.105,0 -2,0.895 -2,2c0,1.105 0.895,2 2,2c1.105,0 2,-0.895 2,-2c0,-1.105 -0.895,-2 -2,-2z" fill="#8889b9" stroke="none" stroke-width="1" stroke-linecap="butt" stroke-linejoin="miter"></path><path d="M18.5,49c-1.381,0 -2.5,1.119 -2.5,2.5c0,1.381 1.119,2.5 2.5,2.5c1.381,0 2.5,-1.119 2.5,-2.5c0,-1.381 -1.119,-2.5 -2.5,-2.5zM79.5,32c-0.828,0 -1.5,0.672 -1.5,1.5c0,0.828 0.672,1.5 1.5,1.5c0.828,0 1.5,-0.672 1.5,-1.5c0,-0.828 -0.672,-1.5 -1.5,-1.5z" fill="#ffffff" stroke="none" stroke-width="1" stroke-linecap="butt" stroke-linejoin="miter"></path><g><circle cx="59.5" cy="51.277" r="8.8" fill="#39c1d7" stroke="none" stroke-width="1" stroke-linecap="butt" stroke-linejoin="miter"></circle><path d="M42.189,76.092v0c-4.675,0 -8.464,-3.749 -8.464,-8.373v0c0,-4.624 3.79,-8.373 8.464,-8.373l8.508,-0.044v8.373c0.001,4.625 -3.833,8.417 -8.508,8.417z" fill="#a0d2a1" stroke="none" stroke-width="1" stroke-linecap="butt" stroke-linejoin="miter"></path><path d="M42.184,42.407c-4.678,0 -8.47,-3.792 -8.47,-8.47c0,-4.678 3.792,-8.47 8.47,-8.47l8.514,-0.044v16.939z" fill="#ee3e54" stroke="none" stroke-width="1" stroke-linecap="butt" stroke-linejoin="miter"></path><path d="M42.184,59.346c-4.678,0 -8.47,-3.792 -8.47,-8.47c0,-4.678 3.792,-8.47 8.47,-8.47l8.514,-0.044v16.939z" fill="#beace5" stroke="none" stroke-width="1" stroke-linecap="butt" stroke-linejoin="miter"></path><path d="M59.836,25.468l-8.426,-0.044v16.939l8.426,0.044c4.678,0 8.47,-3.792 8.47,-8.47c-0.001,-4.677 -3.793,-8.469 -8.47,-8.469z" fill="#f48e8f" stroke="none" stroke-width="1" stroke-linecap="butt" stroke-linejoin="miter"></path><circle cx="59.5" cy="51.277" r="8.8" fill="none" stroke="#472b29" stroke-width="1.4" stroke-linecap="butt" stroke-linejoin="miter"></circle><path d="M42.189,76.092v0c-4.675,0 -8.464,-3.749 -8.464,-8.373v0c0,-4.624 3.79,-8.373 8.464,-8.373l8.508,-0.044v8.373c0.001,4.625 -3.833,8.417 -8.508,8.417z" fill="none" stroke="#472b29" stroke-width="1.4" stroke-linecap="butt" stroke-linejoin="miter"></path><path d="M42.184,42.407c-4.678,0 -8.47,-3.792 -8.47,-8.47c0,-4.678 3.792,-8.47 8.47,-8.47l8.514,-0.044v16.939z" fill="none" stroke="#472b29" stroke-width="1.4" stroke-linecap="butt" stroke-linejoin="miter"></path><path d="M42.184,59.346c-4.678,0 -8.47,-3.792 -8.47,-8.47c0,-4.678 3.792,-8.47 8.47,-8.47l8.514,-0.044v16.939z" fill="none" stroke="#472b29" stroke-width="1.4" stroke-linecap="butt" stroke-linejoin="miter"></path><path d="M51.41,25.424l8.426,0.044c4.678,0 8.47,3.792 8.47,8.47c0,4.678 -3.792,8.47 -8.47,8.47l-8.426,-0.044" fill="none" stroke="#472b29" stroke-width="1.4" stroke-linecap="butt" stroke-linejoin="miter"></path><path d="M38.141,36.278c0.805,1.362 2.288,2.275 3.985,2.275" fill="none" stroke="#472b29" stroke-width="1" stroke-linecap="round" stroke-linejoin="round"></path><path d="M37.799,32.287c-0.193,0.51 -0.299,1.062 -0.299,1.64" fill="none" stroke="#472b29" stroke-width="1" stroke-linecap="round" stroke-linejoin="round"></path><path d="M46.728,29.277l-4.602,0.024c-1.306,0 -2.485,0.541 -3.326,1.411" fill="none" stroke="#472b29" stroke-width="1" stroke-linecap="round" stroke-linejoin="round"></path><path d="M40.5,63.429c0.504,-0.186 1.049,-0.288 1.618,-0.288" fill="none" stroke="#472b29" stroke-width="1" stroke-linecap="round" stroke-linejoin="miter"></path><path d="M38.299,70.278c-0.504,-0.732 -0.799,-1.616 -0.799,-2.568c0,-1.116 0.404,-2.138 1.076,-2.932" fill="none" stroke="#472b29" stroke-width="1" stroke-linecap="round" stroke-linejoin="miter"></path><path d="M42.118,72.277c-0.757,0 -1.472,-0.18 -2.103,-0.5" fill="none" stroke="#472b29" stroke-width="1" stroke-linecap="round" stroke-linejoin="miter"></path><path d="M46.76,67.685c0,1.449 -0.69,2.749 -1.761,3.593" fill="none" stroke="#472b29" stroke-width="1" stroke-linecap="round" stroke-linejoin="miter"></path><path d="M56.505,55.31c-1.217,-0.912 -2.005,-2.366 -2.005,-4.004" fill="none" stroke="#472b29" stroke-width="1" stroke-linecap="round" stroke-linejoin="round"></path><path d="M64.11,49.367c0.251,0.596 0.39,1.252 0.39,1.94c0,2.761 -2.239,5 -5,5" fill="none" stroke="#472b29" stroke-width="1" stroke-linecap="round" stroke-linejoin="round"></path><path d="M59.5,46.306c1.036,0 1.998,0.315 2.796,0.854" fill="none" stroke="#472b29" stroke-width="1" stroke-linecap="round" stroke-linejoin="round"></path></g></g></g></svg>