<svg xmlns="http://www.w3.org/2000/svg" xmlns:xlink="http://www.w3.org/1999/xlink" viewBox="0,0,256,256" width="64px" height="64px" fill-rule="nonzero"><g fill-opacity="0" fill="#ffffff" fill-rule="nonzero" stroke="none" stroke-width="1" stroke-linecap="butt" stroke-linejoin="miter" stroke-miterlimit="10" stroke-dasharray="" stroke-dashoffset="0" font-family="none" font-weight="none" font-size="none" text-anchor="none" style="mix-blend-mode: normal"><path d="M0,256v-256h256v256z" id="bgRectangle"></path></g><g fill="none" fill-rule="nonzero" stroke="none" stroke-width="1" stroke-linecap="butt" stroke-linejoin="miter" stroke-miterlimit="10" stroke-dasharray="" stroke-dashoffset="0" font-family="none" font-weight="none" font-size="none" text-anchor="none" style="mix-blend-mode: normal"><g transform="scale(4,4)"><path d="M32,4c-9.927,0 -13,4.709 -13,7.764v5.236h13v4h-20.236c-3.946,0 -7.764,2.855 -7.764,11c0,8.145 3.818,11 7.764,11h7.509v-5.909c0,-2.8 2.291,-5.091 5.091,-5.091h15.273c2.8,0 5.364,-2.291 5.364,-5.091v-15.145c-0.001,-3.182 -3.074,-7.764 -13.001,-7.764z" fill="#85cbf8"></path><path d="M32,60c9.927,0 12.727,-4.709 12.727,-7.764v-5.236h-12.727v-4h20.236c3.946,0 7.764,-2.855 7.764,-11c0,-8.145 -3.818,-11 -7.764,-11h-7.236v5.909c0,2.8 -2.564,5.091 -5.364,5.091h-15.272c-2.8,0 -5.364,2.291 -5.364,5.091v15.145c0,3.055 3.073,7.764 13,7.764z" fill="#f9dd8f"></path><path d="M26.5,9c-1.38071,0 -2.5,1.11929 -2.5,2.5c0,1.38071 1.11929,2.5 2.5,2.5c1.38071,0 2.5,-1.11929 2.5,-2.5c0,-1.38071 -1.11929,-2.5 -2.5,-2.5zM38.5,50c-1.38071,0 -2.5,1.11929 -2.5,2.5c0,1.38071 1.11929,2.5 2.5,2.5c1.38071,0 2.5,-1.11929 2.5,-2.5c0,-1.38071 -1.11929,-2.5 -2.5,-2.5z" fill="#8d6c9e"></path><path d="M4,32c0,8.145 3.818,11 7.764,11h6.299c0,-2.761 -2.239,-5 -5,-5h-1.299c-2.038,0 -2.764,-3.1 -2.764,-6c0,-2.9 0.726,-6 2.754,-6l16.283,0.031c0.003,0 0.007,0 0.01,0c2.757,0 4.995,-2.232 5,-4.99c0,-0.014 -0.004,-0.027 -0.004,-0.041h-21.279c-3.946,0 -7.764,2.855 -7.764,11z" fill="#ace3ff"></path><path d="M60.047,32c0,-8.145 -3.818,-11 -7.764,-11h-6.299c0,2.761 2.239,5 5,5h1.299c2.038,0 2.764,3.1 2.764,6c0,2.9 -0.726,6 -2.754,6l-16.283,-0.031c-0.003,0 -0.007,0 -0.01,0c-2.757,0 -4.995,2.232 -5,4.99c0,0.014 0.004,0.027 0.004,0.041h21.279c3.946,0 7.764,-2.855 7.764,-11z" fill="#efc88e"></path><path d="M20,44h-8.236c-2.056,0 -8.764,-0.865 -8.764,-12c0,-11.135 6.708,-12 8.764,-12h19.236v-2h-13v-6.236c0,-3.032 2.926,-8.764 14,-8.764c11.052,0 14,5.509 14,8.764v15.146c0,3.301 -2.914,6.09 -6.363,6.09h-15.273c-2.325,0 -4.364,1.912 -4.364,4.091zM11.764,22c-4.299,0 -6.764,3.645 -6.764,10c0,6.355 2.465,10 6.764,10h6.236v-4.909c0,-3.302 2.914,-6.091 6.364,-6.091h15.273c2.324,0 4.363,-1.912 4.363,-4.091v-15.145c0,-2.513 -2.527,-6.764 -12,-6.764c-9.492,0 -12,4.424 -12,6.764v4.236h13v6z" fill="#8d6c9f"></path><path d="M32,61c-11.074,0 -14,-5.732 -14,-8.764v-15.145c0,-3.302 2.914,-6.091 6.364,-6.091h15.273c2.324,0 4.363,-1.912 4.363,-4.091v-6.909h8.236c2.056,0 8.764,0.865 8.764,12c0,11.135 -6.708,12 -8.764,12h-19.236v2h13v6.236c0,3.032 -2.926,8.764 -14,8.764zM24.364,33c-2.325,0 -4.364,1.912 -4.364,4.091v15.146c0,2.339 2.508,6.763 12,6.763c9.492,0 12,-4.424 12,-6.764v-4.236h-13v-6h21.236c4.299,0 6.764,-3.645 6.764,-10c0,-6.355 -2.465,-10 -6.764,-10h-6.236v4.909c0,3.302 -2.914,6.091 -6.363,6.091z" fill="#8d6c9e"></path><path d="M37.652,40c-0.553,0 -1,-0.448 -1,-1v-2c0,-0.552 0.447,-1 1,-1c0.553,0 1,0.448 1,1v2c0,0.552 -0.447,1 -1,1zM42.218,40c-0.553,0 -1,-0.448 -1,-1v-2c0,-0.552 0.447,-1 1,-1c0.553,0 1,0.448 1,1v2c0,0.552 -0.447,1 -1,1zM46.782,40c-0.553,0 -1,-0.448 -1,-1v-2c0,-0.552 0.447,-1 1,-1c0.553,0 1,0.448 1,1v2c0,0.552 -0.447,1 -1,1zM51.348,40c-0.553,0 -1,-0.448 -1,-1v-2c0,-0.552 0.447,-1 1,-1c0.553,0 1,0.448 1,1v2c0,0.552 -0.448,1 -1,1z" fill="#8d6c9f"></path><g fill="#8d6c9f"><path d="M15.652,28.083c-0.552,0 -1,-0.448 -1,-1v-2c0,-0.552 0.448,-1 1,-1c0.552,0 1,0.448 1,1v2c0,0.553 -0.447,1 -1,1zM20.217,28.083c-0.552,0 -1,-0.448 -1,-1v-2c0,-0.552 0.448,-1 1,-1c0.552,0 1,0.448 1,1v2c0,0.553 -0.447,1 -1,1zM24.783,28.083c-0.552,0 -1,-0.448 -1,-1v-2c0,-0.552 0.448,-1 1,-1c0.552,0 1,0.448 1,1v2c0,0.553 -0.448,1 -1,1zM29.348,28.083c-0.552,0 -1,-0.448 -1,-1v-2c0,-0.552 0.448,-1 1,-1c0.552,0 1,0.448 1,1v2c0,0.553 -0.448,1 -1,1z"></path></g></g></g></svg>